HIERARCHY
ROOT Reference
{
  OFFSET 0 0 0
  CHANNELS 6 Xposition Yposition Zposition Zrotation Xrotation Yrotation
  JOINT Hips
  {
    OFFSET 251.394 724.17 483.536
    CHANNELS 3 Zrotation Xrotation Yrotation
    JOINT RightUpLeg
    {
      OFFSET -0.450515 -23.4426 -1.37224
      CHANNELS 3 Zrotation Xrotation Yrotation
      JOINT RightLeg
      {
        OFFSET 112.821 0.0872427 -0.321027
        CHANNELS 3 Zrotation Xrotation Yrotation
        JOINT RightFoot
        {
          OFFSET 105.718 0.000193788 0.0213165
          CHANNELS 3 Zrotation Xrotation Yrotation
          JOINT RightToeBase
          {
            OFFSET 37.638 -0.000116272 0.00224792
            CHANNELS 3 Zrotation Xrotation Yrotation
            JOINT RightToeEnd
            {
              OFFSET 21.2112 0.114605 -0.000138184
              CHANNELS 3 Zrotation Xrotation Yrotation
              End Site
              {
                OFFSET 0 0 0
              }
            }
          }
        }
      }
    }
    JOINT LeftUpLeg
    {
      OFFSET -0.449508 23.4315 -1.37054
      CHANNELS 3 Zrotation Xrotation Yrotation
      JOINT LeftLeg
      {
        OFFSET 112.821 -0.0485242 -0.372458
        CHANNELS 3 Zrotation Xrotation Yrotation
        JOINT LeftFoot
        {
          OFFSET 105.716 0.00496094 -0.0229443
          CHANNELS 3 Zrotation Xrotation Yrotation
          JOINT LeftToeBase
          {
            OFFSET 37.639 0 0.00158905
            CHANNELS 3 Zrotation Xrotation Yrotation
            JOINT LeftToeEnd
            {
              OFFSET 21.2113 -0.125031 -0.00017438
              CHANNELS 3 Zrotation Xrotation Yrotation
              End Site
              {
                OFFSET 0 0 0
              }
            }
          }
        }
      }
    }
    JOINT Spine
    {
      OFFSET -5.01225 0.000463591 -9.60395
      CHANNELS 3 Zrotation Xrotation Yrotation
      JOINT Spine1
      {
        OFFSET 26.0222 -0.000271301 -0.000155029
        CHANNELS 3 Zrotation Xrotation Yrotation
        JOINT Spine2
        {
          OFFSET 27.173 -0.000155029 -0.000310058
          CHANNELS 3 Zrotation Xrotation Yrotation
          JOINT Spine3
          {
            OFFSET 36.3953 -0.000232544 7.75146e-005
            CHANNELS 3 Zrotation Xrotation Yrotation
            JOINT Neck
            {
              OFFSET 36.4331 0 -3.00261
              CHANNELS 3 Zrotation Xrotation Yrotation
              JOINT Head
              {
                OFFSET 23.0407 -0.000232544 -0.000310058
                CHANNELS 3 Zrotation Xrotation Yrotation
                End Site
                {
                  OFFSET 0 0 0
                }
              }
            }
            JOINT LeftShoulder
            {
              OFFSET 20.1317 6.74168 -12.6061
              CHANNELS 3 Zrotation Xrotation Yrotation
              JOINT LeftArm
              {
                OFFSET 34.2172 -5.81359e-005 7.75146e-005
                CHANNELS 3 Zrotation Xrotation Yrotation
                JOINT LeftForeArm
                {
                  OFFSET 65.4129 -0.0821605 0.0585235
                  CHANNELS 3 Zrotation Xrotation Yrotation
                  JOINT LeftHand
                  {
                    OFFSET 67.3883 0.0359667 0.0112396
                    CHANNELS 3 Zrotation Xrotation Yrotation
                    JOINT LeftHandThumb1
                    {
                      OFFSET 8.78386 2.85353 -6.05362
                      CHANNELS 3 Zrotation Xrotation Yrotation
                      JOINT LeftHandThumb2
                      {
                        OFFSET 8.25498 -0.000116272 -0.000174407
                        CHANNELS 3 Zrotation Xrotation Yrotation
                        JOINT LeftHandThumb3
                        {
                          OFFSET 7.24822 0.000310058 5.81358e-005
                          CHANNELS 3 Zrotation Xrotation Yrotation
                          JOINT LeftHandThumb4
                          {
                            OFFSET 7.0004 -3.87568e-005 -0.000310057
                            CHANNELS 3 Zrotation Xrotation Yrotation
                            End Site
                            {
                              OFFSET 0 0 0
                            }
                          }
                        }
                      }
                    }
                    JOINT LeftHandIndex1
                    {
                      OFFSET 24.0991 -1.01537 -5.40558
                      CHANNELS 3 Zrotation Xrotation Yrotation
                      JOINT LeftHandIndex2
                      {
                        OFFSET 7.26759 -0.000290679 -0.000465086
                        CHANNELS 3 Zrotation Xrotation Yrotation
                        JOINT LeftHandIndex3
                        {
                          OFFSET 7.13628 -1.93787e-005 0.000232543
                          CHANNELS 3 Zrotation Xrotation Yrotation
                          JOINT LeftHandIndex4
                          {
                            OFFSET 5.46699 9.68932e-005 -0.000387571
                            CHANNELS 3 Zrotation Xrotation Yrotation
                            End Site
                            {
                              OFFSET 0 0 0
                            }
                          }
                        }
                      }
                    }
                    JOINT LeftHandMiddle1
                    {
                      OFFSET 24.4604 -2.52837 0.918567
                      CHANNELS 3 Zrotation Xrotation Yrotation
                      JOINT LeftHandMiddle2
                      {
                        OFFSET 7.41627 -5.81359e-005 0.000116271
                        CHANNELS 3 Zrotation Xrotation Yrotation
                        JOINT LeftHandMiddle3
                        {
                          OFFSET 8.76829 3.87573e-005 -7.75142e-005
                          CHANNELS 3 Zrotation Xrotation Yrotation
                          JOINT LeftHandMiddle4
                          {
                            OFFSET 6.07588 -0.00013565 -5.81356e-005
                            CHANNELS 3 Zrotation Xrotation Yrotation
                            End Site
                            {
                              OFFSET 0 0 0
                            }
                          }
                        }
                      }
                    }
                    JOINT LeftHandRing1
                    {
                      OFFSET 22.465 -1.97467 6.3466
                      CHANNELS 3 Zrotation Xrotation Yrotation
                      JOINT LeftHandRing2
                      {
                        OFFSET 7.36666 -0.000232544 0.000387571
                        CHANNELS 3 Zrotation Xrotation Yrotation
                        JOINT LeftHandRing3
                        {
                          OFFSET 8.07624 -0.000465087 -0.000203475
                          CHANNELS 3 Zrotation Xrotation Yrotation
                          JOINT LeftHandRing4
                          {
                            OFFSET 6.04433 0.00013565 3.87571e-005
                            CHANNELS 3 Zrotation Xrotation Yrotation
                            End Site
                            {
                              OFFSET 0 0 0
                            }
                          }
                        }
                      }
                    }
                    JOINT LeftHandPinky1
                    {
                      OFFSET 19.5278 0.352933 10.4295
                      CHANNELS 3 Zrotation Xrotation Yrotation
                      JOINT LeftHandPinky2
                      {
                        OFFSET 6.16525 5.8136e-005 -0.000251921
                        CHANNELS 3 Zrotation Xrotation Yrotation
                        JOINT LeftHandPinky3
                        {
                          OFFSET 6.14448 -0.000329434 -0.00510625
                          CHANNELS 3 Zrotation Xrotation Yrotation
                          JOINT LeftHandPinky4
                          {
                            OFFSET 4.98555 0.000116272 0.000116271
                            CHANNELS 3 Zrotation Xrotation Yrotation
                            End Site
                            {
                              OFFSET 0 0 0
                            }
                          }
                        }
                      }
                    }
                  }
                }
              }
            }
            JOINT RightShoulder
            {
              OFFSET 20.1309 -6.74152 -12.6063
              CHANNELS 3 Zrotation Xrotation Yrotation
              JOINT RightArm
              {
                OFFSET 34.2171 7.75146e-005 7.75146e-005
                CHANNELS 3 Zrotation Xrotation Yrotation
                JOINT RightForeArm
                {
                  OFFSET 65.4492 0.242543 -0.176501
                  CHANNELS 3 Zrotation Xrotation Yrotation
                  JOINT RightHand
                  {
                    OFFSET 67.3888 -0.0867388 0.0597442
                    CHANNELS 3 Zrotation Xrotation Yrotation
                    JOINT RightHandThumb1
                    {
                      OFFSET 8.78307 -2.85357 -6.05302
                      CHANNELS 3 Zrotation Xrotation Yrotation
                      JOINT RightHandThumb2
                      {
                        OFFSET 8.25493 -7.75145e-005 0
                        CHANNELS 3 Zrotation Xrotation Yrotation
                        JOINT RightHandThumb3
                        {
                          OFFSET 7.24797 -0.000174408 0.000155029
                          CHANNELS 3 Zrotation Xrotation Yrotation
                          JOINT RightHandThumb4
                          {
                            OFFSET 7.00062 0 0
                            CHANNELS 3 Zrotation Xrotation Yrotation
                            End Site
                            {
                              OFFSET 0 0 0
                            }
                          }
                        }
                      }
                    }
                    JOINT RightHandIndex1
                    {
                      OFFSET 24.0991 1.01525 -5.40578
                      CHANNELS 3 Zrotation Xrotation Yrotation
                      JOINT RightHandIndex2
                      {
                        OFFSET 7.26773 7.75144e-005 0.000232543
                        CHANNELS 3 Zrotation Xrotation Yrotation
                        JOINT RightHandIndex3
                        {
                          OFFSET 7.13572 -0.000310058 3.87571e-005
                          CHANNELS 3 Zrotation Xrotation Yrotation
                          JOINT RightHandIndex4
                          {
                            OFFSET 5.46717 0 3.87572e-005
                            CHANNELS 3 Zrotation Xrotation Yrotation
                            End Site
                            {
                              OFFSET 0 0 0
                            }
                          }
                        }
                      }
                    }
                    JOINT RightHandMiddle1
                    {
                      OFFSET 24.4603 2.52899 0.918547
                      CHANNELS 3 Zrotation Xrotation Yrotation
                      JOINT RightHandMiddle2
                      {
                        OFFSET 7.41641 -0.000116272 -0.000116272
                        CHANNELS 3 Zrotation Xrotation Yrotation
                        JOINT RightHandMiddle3
                        {
                          OFFSET 8.76765 -3.87577e-005 0.000232543
                          CHANNELS 3 Zrotation Xrotation Yrotation
                          JOINT RightHandMiddle4
                          {
                            OFFSET 6.07609 -0.000193787 -0.000116271
                            CHANNELS 3 Zrotation Xrotation Yrotation
                            End Site
                            {
                              OFFSET 0 0 0
                            }
                          }
                        }
                      }
                    }
                    JOINT RightHandRing1
                    {
                      OFFSET 22.465 1.97571 6.34696
                      CHANNELS 3 Zrotation Xrotation Yrotation
                      JOINT RightHandRing2
                      {
                        OFFSET 7.36684 0.000193786 0.000155029
                        CHANNELS 3 Zrotation Xrotation Yrotation
                        JOINT RightHandRing3
                        {
                          OFFSET 8.07614 -0.000271301 0
                          CHANNELS 3 Zrotation Xrotation Yrotation
                          JOINT RightHandRing4
                          {
                            OFFSET 6.04468 0.000232543 0
                            CHANNELS 3 Zrotation Xrotation Yrotation
                            End Site
                            {
                              OFFSET 0 0 0
                            }
                          }
                        }
                      }
                    }
                    JOINT RightHandPinky1
                    {
                      OFFSET 19.5277 -0.352346 10.4296
                      CHANNELS 3 Zrotation Xrotation Yrotation
                      JOINT RightHandPinky2
                      {
                        OFFSET 6.16508 0 0.000232543
                        CHANNELS 3 Zrotation Xrotation Yrotation
                        JOINT RightHandPinky3
                        {
                          OFFSET 6.14396 -0.000155048 -0.0048834
                          CHANNELS 3 Zrotation Xrotation Yrotation
                          JOINT RightHandPinky4
                          {
                            OFFSET 4.98577 -7.75146e-005 -7.75143e-005
                            CHANNELS 3 Zrotation Xrotation Yrotation
                            End Site
                            {
                              OFFSET 0 0 0
                            }
                          }
                        }
                      }
                    }
                  }
                }
              }
            }
          }
        }
      }
    }
  }
}
MOTION
Frames:	4
Frame Time:	0.0333333
0 0 0 -90 -7.01671e-015 -180 -1.95563 -57.2767 -97.7346 -153.961 -41.4199 -55.0048 2.08988 -2.25802 -136.939 -12.2665 -34.911 -2.96585 18.1232 -6.48548 32.8375 3.36341e-006 -8.22762e-006 -86.4974 154.812 38.1174 -56.0241 -2.55112 2.77704 -137.185 4.0337 30.9692 6.43859 -29.5332 10.2609 7.00965 2.07608e-005 -8.59306e-006 -86.4974 -0.0837372 0.499791 123.714 4.24848 2.26595 -19.4109 -0.0320612 2.71221 -14.9482 -0.800509 4.50825 -4.83081 0.533267 -2.97794 25.5649 -3.36001 -3.0813 46.0454 97.9117 25.6635 -2.82866 36.3738 7.46599 77.3011 -17.3139 -3.61507 56.6738 -16.5189 -24.623 -16.2364 -173.375 -50.1252 136.622 0.000340762 1.7872e-005 5.00948 0.000181453 0.00012713 25.7995 0.000245886 -0.00128407 -0.000124221 100.419 79.0802 -71.7825 0.000187814 -0.000905652 54.6253 0.00173692 -2.03336e-006 51.8874 -0.000594228 -0.00051162 -0.00045677 15.4717 85.6673 19.7589 0.000308592 -0.000190247 65.9843 0.001052 -0.000231483 28.9975 -0.000548122 -0.000298395 8.86846e-005 16.1784 83.9647 32.3096 0.000578762 -0.00104588 38.6714 0.00170717 0.000748852 41.1952 -0.000633494 -0.00068836 0.000687283 20.9218 81.3853 5.33293 0.00146896 -0.000504615 45.7781 0.000429472 0.000218804 33.0153 -1.36342e-005 -8.45232e-005 -0.000426886 -88.0014 -26.1599 9.28764 -31.0722 21.1023 83.2419 0.419543 -6.42578 58.0205 60.4991 37.7356 -54.3012 173.375 50.1253 136.622 -5.87555e-005 4.34271e-005 5.00948 0.000162112 0.000167849 25.7995 -1.52587e-005 -0.000106811 -180 -100.42 -79.0802 -71.7826 -0.00020881 0.000187883 54.6252 0.000168451 -3.33941e-005 51.8874 -0.000106811 -3.05175e-005 -180 -15.4711 -85.6674 19.7595 -8.53946e-005 4.40317e-005 65.9843 9.31504e-005 1.92386e-005 28.9974 -1.52588e-005 3.05175e-005 -180 -16.1779 -83.9648 32.3102 -2.2182e-005 0.000213462 38.6713 8.98804e-005 -0.000220329 41.1952 1.52588e-005 -6.10351e-005 -180 -20.9215 -81.3853 5.33329 -8.78791e-005 0.000228223 45.7781 -2.54433e-005 -2.77846e-005 33.0153 1.52588e-005 -1.52588e-005 180 
0 0 0 -90 -7.01671e-015 -180 -1.86076 -57.1628 -97.4226 -153.812 -41.1262 -54.8053 2.0197 -2.1894 -137.017 -11.8438 -34.5832 -2.32518 18.4446 -6.68456 32.7566 3.3443e-006 -8.31778e-006 -86.4974 154.859 37.8974 -55.6752 -2.45379 2.67878 -137.27 4.23767 30.6651 6.42312 -29.3227 10.2334 7.06673 2.07572e-005 -9.11114e-006 -86.4974 -0.0805068 0.473834 123.811 4.35212 2.13162 -19.3583 -0.167109 2.62442 -15.0044 -0.776033 4.58443 -5.42018 0.551744 -2.92372 25.0568 -3.63733 -3.08899 46.0278 97.9131 25.6896 -2.82927 36.4179 7.73052 76.9603 -17.2761 -3.67187 57.0737 -16.6351 -24.4523 -16.4237 -173.375 -50.1253 136.622 0.000340762 1.54571e-005 5.00948 0.000181564 0.000124779 25.7995 0.000245884 -0.00128407 -0.000124221 100.419 79.0802 -71.7824 0.000187729 -0.000905696 54.6253 0.00173702 -2.14325e-006 51.8874 -0.000593386 -0.000511825 -0.00261586 15.4717 85.6673 19.7589 0.000307791 -0.000191887 65.9843 0.00105213 -0.000233965 28.9975 -0.000548982 -0.000298381 -0.00207019 16.1784 83.9647 32.3097 0.000578722 -0.00104927 38.6714 0.00170718 0.000741896 41.1952 -0.000631803 -0.000688132 -0.00147148 20.9218 81.3853 5.33295 0.00146894 -0.000504603 45.7781 0.000429474 0.000212022 33.0153 0.00011056 -8.36713e-005 -0.00250486 -88.0794 -26.1685 9.11781 -31.1766 20.8447 83.0317 0.456891 -6.60588 58.4165 60.6447 37.6205 -54.469 173.375 50.1253 136.622 -5.8844e-005 4.10225e-005 5.00948 0.000162749 0.00016803 25.7995 -1.52593e-005 -0.000106811 180 -100.42 -79.0802 -71.7827 -0.000210438 0.000185215 54.6252 0.000169017 -3.61233e-005 51.8874 -0.000106812 -3.05175e-005 180 -15.4711 -85.6674 19.7595 -8.53304e-005 4.34472e-005 65.9843 9.26099e-005 1.89296e-005 28.9974 -0.000228882 3.05175e-005 -180 -16.1779 -83.9648 32.3102 -2.32764e-005 0.000211813 38.6713 9.08165e-005 -0.000222993 41.1952 1.52584e-005 -6.10351e-005 180 -20.9215 -81.3854 5.33328 -8.72424e-005 0.000228788 45.7781 -2.78247e-005 -3.29452e-005 33.0153 1.52587e-005 -1.52588e-005 180 
0 0 0 -90 -7.01671e-015 -180 -1.67176 -57.0114 -96.9855 -153.709 -40.7254 -54.7862 1.93764 -2.10169 -136.976 -11.5557 -34.1515 -1.59666 18.946 -6.94001 32.7328 3.33263e-006 -8.49912e-006 -86.4974 154.95 37.6644 -55.3896 -2.33907 2.56108 -137.274 4.37639 30.2799 6.59628 -29.2399 10.1721 7.27751 2.065e-005 -1.30428e-005 -86.4974 -0.0769134 0.445431 123.913 4.42223 1.98211 -19.3088 -0.365409 2.52981 -15.0369 -0.741914 4.65606 -6.05954 0.55479 -2.80549 24.3978 -3.76724 -3.09401 46.3008 97.9248 25.7153 -2.852 36.4975 8.1081 76.3446 -17.1782 -3.99777 57.9351 -16.7401 -24.0217 -16.7207 -173.375 -50.1253 136.622 0.000340786 1.30459e-005 5.00948 0.00018236 0.000122766 25.7995 0.000245887 -0.00128749 -0.000124221 100.419 79.0802 -71.7824 0.000187665 -0.00090571 54.6253 0.00173727 -2.30236e-006 51.8874 -0.000593397 -0.000512029 -0.00477451 15.4717 85.6673 19.7588 0.000306752 -0.000196535 65.9843 0.0010524 -0.000236499 28.9975 -0.000548991 -0.000298154 -0.00422884 16.1785 83.9647 32.3096 0.000578591 -0.00105571 38.6714 0.00170734 0.000737512 41.1952 -0.000634381 -0.000688118 -0.00363014 20.9218 81.3853 5.3329 0.00146901 -0.000504485 45.7781 0.00042994 0.000205922 33.0153 0.000233931 -8.36775e-005 -0.00457782 -88.2235 -26.1576 8.81961 -31.2041 20.4339 82.8003 0.676237 -6.77806 59.1477 60.8945 37.346 -54.861 173.375 50.1253 136.622 -5.8873e-005 3.76624e-005 5.00948 0.000161928 0.000167418 25.7995 -1.52598e-005 -0.000106811 179.999 -100.42 -79.0802 -71.7827 -0.000213497 0.00017996 54.6252 0.000167945 -4.09563e-005 51.8873 -0.000106812 -3.05175e-005 179.999 -15.4711 -85.6674 19.7595 -7.98087e-005 5.4047e-005 65.9843 9.09152e-005 1.79925e-005 28.9974 -0.000457763 3.05175e-005 -180 -16.1779 -83.9648 32.3102 -2.31808e-005 0.000210245 38.6713 9.05919e-005 -0.000226699 41.1952 1.52579e-005 -6.10351e-005 179.999 -20.9216 -81.3854 5.3332 -8.56131e-005 0.00022993 45.7781 -2.84042e-005 -4.20282e-005 33.0153 1.52586e-005 -1.52588e-005 179.999 
0 0 0 -90 -7.01671e-015 -180 -1.25759 -56.685 -96.2927 -153.457 -40.0429 -55.0076 1.80966 -1.95515 -136.753 -10.8796 -33.6192 -0.458507 19.1508 -7.06187 32.9109 3.31133e-006 -1.17763e-005 -86.4974 155.133 37.4388 -55.1398 -2.1964 2.40016 -137.094 4.38736 29.8819 6.85367 -28.7697 10.031 7.45668 2.06296e-005 -1.71232e-005 -86.4974 -0.073743 0.415552 123.983 4.46081 1.76267 -19.3214 -0.779782 2.41396 -15.0119 -0.704089 4.71232 -6.68675 0.581204 -2.734 23.5085 -3.91568 -3.12106 46.52 97.926 25.7487 -2.8391 36.7387 8.61288 75.353 -16.7101 -4.57313 59.4915 -16.9818 -23.0258 -17.1232 -173.375 -50.1254 136.622 0.000340799 5.41456e-006 5.00948 0.000182588 0.000118723 25.7996 0.000245884 -0.00129091 -0.000124221 100.419 79.0802 -71.7823 0.000187064 -0.000909904 54.6253 0.00173826 -6.07401e-006 51.8874 -0.000596823 -0.000511592 -0.00693339 15.4717 85.6673 19.7589 0.000305992 -0.00020071 65.9843 0.00105288 -0.000241529 28.9975 -0.000548998 -0.000297926 -0.00638772 16.1784 83.9647 32.3097 0.00057585 -0.00106893 38.6714 0.001708 0.000726898 41.1952 -0.000632688 -0.000687463 -0.0057889 20.9218 81.3853 5.33293 0.00147012 -0.000505709 45.7782 0.000430327 0.000191755 33.0153 0.000355593 -8.19805e-005 -0.0066509 -88.6242 -26.1153 8.27192 -30.9085 20.015 82.3716 1.0161 -7.07932 60.4595 61.4649 36.8961 -55.691 173.375 50.1253 136.622 -5.90264e-005 3.05101e-005 5.00948 0.000162163 0.000164607 25.7996 -1.52604e-005 -0.000106811 179.999 -100.42 -79.0802 -71.7828 -0.000199453 0.000198144 54.6252 0.000172476 -4.16698e-005 51.8874 -0.000106812 -3.05175e-005 179.999 -15.4711 -85.6674 19.7595 -8.53218e-005 2.80147e-005 65.9843 9.65909e-005 1.87268e-005 28.9974 -0.000671386 3.05175e-005 -180 -16.178 -83.9648 32.3102 -2.12029e-005 0.000208692 38.6713 8.68386e-005 -0.000236556 41.1952 1.52575e-005 -6.10351e-005 179.999 -20.9216 -81.3854 5.33319 -8.56979e-005 0.000225432 45.7781 -2.77903e-005 -5.63692e-005 33.0153 1.52585e-005 -1.52588e-005 179.999 
